<svg xmlns="http://www.w3.org/2000/svg" xmlns:xlink="http://www.w3.org/1999/xlink" width="500" zoomAndPan="magnify" viewBox="0 0 375 374.999991" height="500" preserveAspectRatio="xMidYMid meet" version="1.0"><defs><g/><clipPath id="c3c2b7c237"><rect x="0" width="206" y="0" height="100"/></clipPath><clipPath id="7f20ce799a"><path d="M 171.125 149.105469 L 204 149.105469 L 204 242.855469 L 171.125 242.855469 Z M 171.125 149.105469 " clip-rule="nonzero"/></clipPath><clipPath id="77209d0b23"><path d="M 92.945312 224.945312 L 122.945312 224.945312 L 122.945312 266.945312 L 92.945312 266.945312 Z M 92.945312 224.945312 " clip-rule="nonzero"/></clipPath><clipPath id="dfaf452ada"><path d="M 252.746094 224.851562 L 282.746094 224.851562 L 282.746094 266.851562 L 252.746094 266.851562 Z M 252.746094 224.851562 " clip-rule="nonzero"/></clipPath><clipPath id="74fac68e1e"><path d="M 0.746094 0.851562 L 30.746094 0.851562 L 30.746094 42.851562 L 0.746094 42.851562 Z M 0.746094 0.851562 " clip-rule="nonzero"/></clipPath><clipPath id="910f69d9cd"><rect x="0" width="31" y="0" height="43"/></clipPath><clipPath id="3b9e401a57"><rect x="0" width="53" y="0" height="16"/></clipPath></defs><g transform="matrix(1, 0, 0, 1, 84, 99)"><g clip-path="url(#c3c2b7c237)"><g fill="#ffc05f" fill-opacity="1"><g transform="translate(21.288728, 98.982378)"><g><path d="M -13.25 -13.328125 C -13.21875 -13.566406 -13.109375 -13.753906 -12.921875 -13.890625 C -12.742188 -14.023438 -12.539062 -14.078125 -12.3125 -14.046875 L -10.34375 -13.78125 C -9.863281 -13.71875 -9.648438 -13.503906 -9.703125 -13.140625 L -9.78125 -12.578125 C -9.820312 -12.222656 -10.082031 -12.078125 -10.5625 -12.140625 L -11.6875 -12.296875 L -12.515625 -6.25 L -7.640625 -5.578125 L -7 -10.25 C -6.976562 -10.40625 -6.898438 -10.535156 -6.765625 -10.640625 C -6.628906 -10.742188 -6.472656 -10.785156 -6.296875 -10.765625 L -5.859375 -10.703125 C -5.691406 -10.679688 -5.554688 -10.597656 -5.453125 -10.453125 C -5.347656 -10.316406 -5.304688 -10.171875 -5.328125 -10.015625 L -5.96875 -5.34375 L -1.0625 -4.6875 L -0.828125 -6.390625 C -0.765625 -6.835938 -0.539062 -7.035156 -0.15625 -6.984375 L 0.359375 -6.90625 C 0.742188 -6.851562 0.90625 -6.601562 0.84375 -6.15625 L 0.28125 -2.015625 C 0.207031 -1.546875 -0.0195312 -1.335938 -0.40625 -1.390625 L -0.921875 -1.46875 C -1.304688 -1.519531 -1.460938 -1.78125 -1.390625 -2.25 L -1.328125 -2.78125 L -12.78125 -4.34375 L -12.84375 -3.8125 C -12.914062 -3.34375 -13.144531 -3.132812 -13.53125 -3.1875 L -14.0625 -3.25 C -14.4375 -3.300781 -14.585938 -3.5625 -14.515625 -4.03125 Z M -13.25 -13.328125 "/></g></g></g><g fill="#ffc05f" fill-opacity="1"><g transform="translate(23.917074, 82.420755)"><g><path d="M 0.03125 -11.90625 C 0.09375 -12.082031 0.195312 -12.195312 0.34375 -12.25 C 0.488281 -12.3125 0.671875 -12.300781 0.890625 -12.21875 L 3.140625 -11.4375 C 3.359375 -11.351562 3.515625 -11.207031 3.609375 -11 C 3.703125 -10.789062 3.710938 -10.570312 3.640625 -10.34375 L 0.671875 -1.921875 C 0.515625 -1.472656 0.253906 -1.3125 -0.109375 -1.4375 L -0.609375 -1.625 C -0.972656 -1.75 -1.078125 -2.035156 -0.921875 -2.484375 L -0.734375 -3 L -11.640625 -6.828125 L -11.828125 -6.3125 C -11.984375 -5.863281 -12.242188 -5.703125 -12.609375 -5.828125 L -13.109375 -6.015625 C -13.472656 -6.140625 -13.578125 -6.425781 -13.421875 -6.875 L -12.09375 -10.65625 C -11.9375 -11.101562 -11.675781 -11.265625 -11.3125 -11.140625 L -10.8125 -10.953125 C -10.445312 -10.828125 -10.34375 -10.539062 -10.5 -10.09375 L -11.015625 -8.640625 L -0.109375 -4.8125 L 1.765625 -10.125 L 0.328125 -10.625 C -0.117188 -10.78125 -0.28125 -11.039062 -0.15625 -11.40625 Z M 0.03125 -11.90625 "/></g></g></g><g fill="#ffc05f" fill-opacity="1"><g transform="translate(29.494767, 67.111503)"><g><path d="M 4.40625 -6.671875 C 3.695312 -5.523438 2.828125 -4.695312 1.796875 -4.1875 C 0.765625 -3.6875 -0.367188 -3.507812 -1.609375 -3.65625 C -2.847656 -3.8125 -4.113281 -4.289062 -5.40625 -5.09375 C -6.738281 -5.925781 -7.765625 -6.894531 -8.484375 -8 C -9.203125 -9.101562 -9.566406 -10.257812 -9.578125 -11.46875 C -9.585938 -12.675781 -9.234375 -13.859375 -8.515625 -15.015625 C -7.816406 -16.140625 -6.945312 -16.957031 -5.90625 -17.46875 C -4.875 -17.988281 -3.742188 -18.171875 -2.515625 -18.015625 C -1.285156 -17.867188 -0.0234375 -17.394531 1.265625 -16.59375 C 2.617188 -15.75 3.65625 -14.78125 4.375 -13.6875 C 5.09375 -12.59375 5.457031 -11.4375 5.46875 -10.21875 C 5.476562 -9.007812 5.125 -7.828125 4.40625 -6.671875 Z M 2.96875 -7.578125 C 3.78125 -8.867188 3.945312 -10.15625 3.46875 -11.4375 C 3 -12.726562 1.929688 -13.890625 0.265625 -14.921875 C -1.335938 -15.910156 -2.769531 -16.332031 -4.03125 -16.1875 C -5.289062 -16.050781 -6.3125 -15.351562 -7.09375 -14.09375 C -7.894531 -12.8125 -8.0625 -11.53125 -7.59375 -10.25 C -7.125 -8.96875 -6.054688 -7.8125 -4.390625 -6.78125 C -2.773438 -5.78125 -1.335938 -5.347656 -0.078125 -5.484375 C 1.171875 -5.617188 2.1875 -6.316406 2.96875 -7.578125 Z M 2.96875 -7.578125 "/></g></g></g><g fill="#ffc05f" fill-opacity="1"><g transform="translate(40.180871, 50.789606)"><g><path d="M 8.21875 -10.578125 C 8.375 -10.734375 8.53125 -10.820312 8.6875 -10.84375 C 8.84375 -10.863281 8.988281 -10.804688 9.125 -10.671875 L 9.5 -10.296875 C 9.769531 -10.023438 9.738281 -9.722656 9.40625 -9.390625 L 8.15625 -8.140625 C 7.976562 -7.972656 7.769531 -7.910156 7.53125 -7.953125 L 3.109375 -9.015625 C 2.359375 -9.191406 1.820312 -9.289062 1.5 -9.3125 C 1.1875 -9.332031 0.90625 -9.273438 0.65625 -9.140625 C 0.40625 -9.003906 0.0703125 -8.726562 -0.34375 -8.3125 L -1.140625 -7.5 L 2 -4.359375 L 2.390625 -4.765625 C 2.722656 -5.097656 3.023438 -5.128906 3.296875 -4.859375 L 3.671875 -4.484375 C 3.941406 -4.210938 3.910156 -3.910156 3.578125 -3.578125 L 1.4375 -1.4375 C 1.101562 -1.101562 0.800781 -1.070312 0.53125 -1.34375 L 0.15625 -1.71875 C -0.113281 -1.988281 -0.0820312 -2.289062 0.25 -2.625 L 0.640625 -3.015625 L -7.53125 -11.203125 L -7.921875 -10.8125 C -8.253906 -10.476562 -8.554688 -10.445312 -8.828125 -10.71875 L -9.203125 -11.09375 C -9.472656 -11.363281 -9.441406 -11.664062 -9.109375 -12 L -5.71875 -15.390625 C -3.070312 -18.023438 -0.785156 -18.378906 1.140625 -16.453125 C 1.921875 -15.660156 2.363281 -14.789062 2.46875 -13.84375 C 2.582031 -12.90625 2.351562 -11.953125 1.78125 -10.984375 C 2.238281 -11.085938 2.84375 -11.035156 3.59375 -10.828125 L 7.546875 -9.90625 Z M -0.671875 -10.359375 C 0.203125 -11.242188 0.675781 -12.066406 0.75 -12.828125 C 0.820312 -13.585938 0.503906 -14.328125 -0.203125 -15.046875 C -0.828125 -15.660156 -1.484375 -15.894531 -2.171875 -15.75 C -2.859375 -15.601562 -3.660156 -15.070312 -4.578125 -14.15625 L -6.171875 -12.546875 L -2.328125 -8.703125 Z M -0.671875 -10.359375 "/></g></g></g><g fill="#ffc05f" fill-opacity="1"><g transform="translate(53.258402, 38.161702)"><g><path d="M 11.515625 -9.125 C 11.910156 -9.375 12.210938 -9.332031 12.421875 -9 L 12.6875 -8.546875 C 12.894531 -8.222656 12.800781 -7.9375 12.40625 -7.6875 L 9.765625 -6.0625 C 9.367188 -5.8125 9.066406 -5.847656 8.859375 -6.171875 L 8.59375 -6.625 C 8.382812 -6.957031 8.476562 -7.25 8.875 -7.5 L 9.359375 -7.796875 L 6.671875 -9.828125 L 1.828125 -6.8125 L 2.484375 -3.53125 L 2.953125 -3.828125 C 3.359375 -4.078125 3.664062 -4.035156 3.875 -3.703125 L 4.140625 -3.25 C 4.347656 -2.925781 4.25 -2.640625 3.84375 -2.390625 L 1.359375 -0.84375 C 0.972656 -0.601562 0.675781 -0.644531 0.46875 -0.96875 L 0.203125 -1.421875 C -0.00390625 -1.753906 0.0820312 -2.039062 0.46875 -2.28125 L 0.9375 -2.578125 L -1.65625 -15.984375 C -1.664062 -16.128906 -1.644531 -16.273438 -1.59375 -16.421875 C -1.539062 -16.566406 -1.445312 -16.675781 -1.3125 -16.75 L -0.765625 -17.09375 C -0.640625 -17.164062 -0.5 -17.203125 -0.34375 -17.203125 C -0.195312 -17.210938 -0.0625 -17.164062 0.0625 -17.0625 L 11.046875 -8.84375 Z M 5.234375 -10.90625 L 0.28125 -14.65625 L 1.46875 -8.578125 Z M 5.234375 -10.90625 "/></g></g></g><g fill="#ffc05f" fill-opacity="1"><g transform="translate(70.163901, 28.344675)"><g><path d="M 0.265625 -6.640625 C 0.0234375 -6.554688 -0.171875 -6.550781 -0.328125 -6.625 C -0.492188 -6.695312 -0.613281 -6.835938 -0.6875 -7.046875 L -0.765625 -7.28125 C -0.847656 -7.5 -0.847656 -7.691406 -0.765625 -7.859375 C -0.691406 -8.023438 -0.535156 -8.148438 -0.296875 -8.234375 L 6.625 -10.6875 C 6.875 -10.769531 7.078125 -10.769531 7.234375 -10.6875 C 7.398438 -10.613281 7.523438 -10.46875 7.609375 -10.25 L 7.6875 -10.015625 C 7.757812 -9.804688 7.753906 -9.617188 7.671875 -9.453125 C 7.597656 -9.296875 7.4375 -9.175781 7.1875 -9.09375 Z M 0.265625 -6.640625 "/></g></g></g><g fill="#ffc05f" fill-opacity="1"><g transform="translate(84.996602, 23.254091)"><g><path d="M 11.828125 -14.84375 L 13.265625 -3.375 L 13.828125 -3.453125 C 14.285156 -3.503906 14.539062 -3.335938 14.59375 -2.953125 L 14.65625 -2.4375 C 14.707031 -2.050781 14.503906 -1.832031 14.046875 -1.78125 L 11.03125 -1.390625 C 10.570312 -1.335938 10.316406 -1.503906 10.265625 -1.890625 L 10.203125 -2.40625 C 10.148438 -2.789062 10.351562 -3.007812 10.8125 -3.0625 L 11.359375 -3.140625 L 10.71875 -8.265625 L 3.609375 -7.359375 L 4.25 -2.234375 L 4.796875 -2.3125 C 5.265625 -2.363281 5.523438 -2.195312 5.578125 -1.8125 L 5.640625 -1.296875 C 5.691406 -0.910156 5.484375 -0.691406 5.015625 -0.640625 L 2.015625 -0.25 C 1.546875 -0.195312 1.285156 -0.363281 1.234375 -0.75 L 1.171875 -1.265625 C 1.117188 -1.648438 1.328125 -1.867188 1.796875 -1.921875 L 2.34375 -2 L 0.90625 -13.46875 L 0.359375 -13.390625 C -0.109375 -13.335938 -0.367188 -13.503906 -0.421875 -13.890625 L -0.484375 -14.421875 C -0.535156 -14.796875 -0.328125 -15.007812 0.140625 -15.0625 L 3.140625 -15.453125 C 3.609375 -15.503906 3.867188 -15.34375 3.921875 -14.96875 L 3.984375 -14.4375 C 4.035156 -14.050781 3.828125 -13.832031 3.359375 -13.78125 L 2.8125 -13.703125 L 3.390625 -9.03125 L 10.5 -9.9375 L 9.921875 -14.609375 L 9.375 -14.53125 C 8.914062 -14.476562 8.660156 -14.644531 8.609375 -15.03125 L 8.546875 -15.5625 C 8.492188 -15.9375 8.695312 -16.148438 9.15625 -16.203125 L 12.171875 -16.59375 C 12.628906 -16.644531 12.882812 -16.484375 12.9375 -16.109375 L 13 -15.578125 C 13.050781 -15.191406 12.847656 -14.972656 12.390625 -14.921875 Z M 11.828125 -14.84375 "/></g></g></g><g fill="#ffc05f" fill-opacity="1"><g transform="translate(104.294914, 21.195835)"><g><path d="M 7.90625 1.109375 C 6.570312 0.953125 5.453125 0.523438 4.546875 -0.171875 C 3.648438 -0.878906 3 -1.828125 2.59375 -3.015625 C 2.195312 -4.210938 2.085938 -5.566406 2.265625 -7.078125 C 2.429688 -8.640625 2.859375 -9.984375 3.546875 -11.109375 C 4.242188 -12.234375 5.132812 -13.054688 6.21875 -13.578125 C 7.3125 -14.109375 8.535156 -14.296875 9.890625 -14.140625 C 11.203125 -13.992188 12.3125 -13.566406 13.21875 -12.859375 C 14.132812 -12.148438 14.789062 -11.207031 15.1875 -10.03125 C 15.582031 -8.851562 15.695312 -7.507812 15.53125 -6 C 15.351562 -4.414062 14.921875 -3.0625 14.234375 -1.9375 C 13.554688 -0.820312 12.671875 0 11.578125 0.53125 C 10.484375 1.0625 9.257812 1.253906 7.90625 1.109375 Z M 8.109375 -0.5625 C 9.617188 -0.394531 10.851562 -0.800781 11.8125 -1.78125 C 12.769531 -2.769531 13.359375 -4.238281 13.578125 -6.1875 C 13.785156 -8.0625 13.554688 -9.535156 12.890625 -10.609375 C 12.222656 -11.691406 11.15625 -12.316406 9.6875 -12.484375 C 8.175781 -12.648438 6.941406 -12.242188 5.984375 -11.265625 C 5.035156 -10.296875 4.453125 -8.832031 4.234375 -6.875 C 4.023438 -4.988281 4.25 -3.503906 4.90625 -2.421875 C 5.570312 -1.347656 6.640625 -0.726562 8.109375 -0.5625 Z M 8.109375 -0.5625 "/></g></g></g><g fill="#ffc05f" fill-opacity="1"><g transform="translate(123.598941, 23.735965)"><g><path d="M 14.296875 3.390625 C 14.734375 3.546875 14.882812 3.804688 14.75 4.171875 L 14.578125 4.671875 C 14.441406 5.035156 14.15625 5.140625 13.71875 4.984375 L 10.8125 3.921875 C 10.375 3.765625 10.222656 3.503906 10.359375 3.140625 L 10.53125 2.640625 C 10.664062 2.273438 10.953125 2.171875 11.390625 2.328125 L 11.921875 2.515625 L 11.828125 -0.828125 L 6.46875 -2.78125 L 4.3125 -0.234375 L 4.84375 -0.046875 C 5.28125 0.109375 5.429688 0.367188 5.296875 0.734375 L 5.125 1.234375 C 4.988281 1.597656 4.703125 1.703125 4.265625 1.546875 L 1.5 0.546875 C 1.070312 0.390625 0.925781 0.128906 1.0625 -0.234375 L 1.234375 -0.734375 C 1.367188 -1.097656 1.648438 -1.203125 2.078125 -1.046875 L 2.609375 -0.859375 L 11.515625 -11.203125 C 11.628906 -11.304688 11.757812 -11.378906 11.90625 -11.421875 C 12.050781 -11.472656 12.195312 -11.472656 12.34375 -11.421875 L 12.953125 -11.203125 C 13.085938 -11.148438 13.203125 -11.0625 13.296875 -10.9375 C 13.398438 -10.8125 13.445312 -10.671875 13.4375 -10.515625 L 13.78125 3.203125 Z M 11.8125 -2.640625 L 11.671875 -8.84375 L 7.65625 -4.15625 Z M 11.8125 -2.640625 "/></g></g></g><g fill="#ffc05f" fill-opacity="1"><g transform="translate(141.905767, 31.208215)"><g/></g></g><g fill="#ffc05f" fill-opacity="1"><g transform="translate(150.185072, 35.991611)"><g><path d="M 18.765625 -3.84375 C 18.953125 -3.6875 19.054688 -3.492188 19.078125 -3.265625 C 19.109375 -3.035156 19.046875 -2.828125 18.890625 -2.640625 L 17.421875 -0.875 C 17.117188 -0.507812 16.816406 -0.453125 16.515625 -0.703125 L 16.109375 -1.046875 C 15.816406 -1.285156 15.820312 -1.585938 16.125 -1.953125 L 17.046875 -3.078125 L 14.5625 -5.140625 L 7.1875 3.765625 L 7.625 4.125 C 7.976562 4.425781 8.03125 4.722656 7.78125 5.015625 L 7.453125 5.4375 C 7.203125 5.726562 6.898438 5.722656 6.546875 5.421875 L 4.203125 3.484375 C 3.859375 3.191406 3.8125 2.898438 4.0625 2.609375 L 4.390625 2.1875 C 4.640625 1.894531 4.9375 1.894531 5.28125 2.1875 L 5.703125 2.546875 L 13.078125 -6.359375 L 10.609375 -8.421875 L 9.6875 -7.296875 C 9.382812 -6.929688 9.082031 -6.867188 8.78125 -7.109375 L 8.375 -7.453125 C 8.082031 -7.703125 8.085938 -8.007812 8.390625 -8.375 L 9.859375 -10.140625 C 10.015625 -10.328125 10.203125 -10.429688 10.421875 -10.453125 C 10.640625 -10.484375 10.835938 -10.421875 11.015625 -10.265625 Z M 18.765625 -3.84375 "/></g></g></g><g fill="#ffc05f" fill-opacity="1"><g transform="translate(163.330878, 47.185339)"><g><path d="M 20.390625 1.625 L 18.75 2.875 C 19.25 3.363281 19.78125 3.523438 20.34375 3.359375 C 20.914062 3.191406 21.53125 2.851562 22.1875 2.34375 L 23.390625 3.921875 L 23.28125 4.1875 C 22.6875 4.488281 22.078125 4.710938 21.453125 4.859375 C 20.835938 5.015625 20.222656 5.003906 19.609375 4.828125 C 18.992188 4.660156 18.359375 4.273438 17.703125 3.671875 L 12.5625 7.59375 C 11.71875 8.238281 10.835938 8.65625 9.921875 8.84375 C 9.015625 9.039062 8.109375 8.945312 7.203125 8.5625 C 6.296875 8.1875 5.429688 7.460938 4.609375 6.390625 C 3.421875 4.835938 2.929688 3.347656 3.140625 1.921875 C 3.347656 0.492188 4.128906 -0.726562 5.484375 -1.75 L 13.28125 -7.703125 L 14.4375 -6.171875 L 6.5625 -0.171875 C 5.59375 0.566406 5.039062 1.410156 4.90625 2.359375 C 4.78125 3.316406 5.128906 4.335938 5.953125 5.421875 C 6.515625 6.160156 7.097656 6.648438 7.703125 6.890625 C 8.304688 7.128906 8.921875 7.171875 9.546875 7.015625 C 10.179688 6.867188 10.800781 6.566406 11.40625 6.109375 L 19.25 0.125 Z M 20.390625 1.625 "/></g></g></g><g fill="#ffc05f" fill-opacity="1"><g transform="translate(175.058641, 63.193734)"><g><path d="M 13.125 11.03125 C 11.664062 11.664062 10.296875 11.972656 9.015625 11.953125 C 7.734375 11.929688 6.582031 11.570312 5.5625 10.875 C 4.539062 10.1875 3.726562 9.144531 3.125 7.75 C 2.488281 6.289062 2.265625 4.953125 2.453125 3.734375 C 2.640625 2.515625 3.171875 1.429688 4.046875 0.484375 C 4.929688 -0.453125 6.097656 -1.234375 7.546875 -1.859375 C 8.960938 -2.472656 10.3125 -2.773438 11.59375 -2.765625 C 12.882812 -2.765625 14.035156 -2.414062 15.046875 -1.71875 C 16.054688 -1.03125 16.878906 0.046875 17.515625 1.515625 C 17.984375 2.585938 18.210938 3.601562 18.203125 4.5625 C 18.191406 5.53125 17.984375 6.421875 17.578125 7.234375 C 17.960938 7.722656 18.429688 7.929688 18.984375 7.859375 C 19.546875 7.785156 20.164062 7.601562 20.84375 7.3125 L 21.65625 9.171875 L 21.5 9.40625 C 20.675781 9.59375 19.851562 9.640625 19.03125 9.546875 C 18.21875 9.460938 17.488281 9.078125 16.84375 8.390625 C 15.976562 9.453125 14.738281 10.332031 13.125 11.03125 Z M 8.34375 0 C 6.582031 0.769531 5.351562 1.742188 4.65625 2.921875 C 3.957031 4.097656 3.957031 5.484375 4.65625 7.078125 C 5.34375 8.671875 6.347656 9.609375 7.671875 9.890625 C 9.003906 10.179688 10.550781 9.941406 12.3125 9.171875 C 14.050781 8.421875 15.265625 7.46875 15.953125 6.3125 C 16.648438 5.15625 16.65625 3.78125 15.96875 2.1875 C 15.269531 0.582031 14.257812 -0.367188 12.9375 -0.671875 C 11.613281 -0.972656 10.082031 -0.75 8.34375 0 Z M 8.34375 0 "/></g></g></g><g fill="#ffc05f" fill-opacity="1"><g transform="translate(182.387349, 82.05935)"><g><path d="M 0.4375 1.984375 C 0.34375 1.523438 0.484375 1.253906 0.859375 1.171875 L 1.375 1.046875 C 1.75 0.960938 1.984375 1.148438 2.078125 1.609375 L 2.203125 2.140625 L 13.484375 -0.390625 L 13.359375 -0.921875 C 13.265625 -1.378906 13.40625 -1.648438 13.78125 -1.734375 L 14.3125 -1.84375 C 14.6875 -1.925781 14.921875 -1.738281 15.015625 -1.28125 L 15.6875 1.671875 C 15.789062 2.128906 15.65625 2.398438 15.28125 2.484375 L 14.75 2.59375 C 14.375 2.675781 14.132812 2.488281 14.03125 2.03125 L 13.90625 1.484375 L 2.625 4.015625 L 2.75 4.5625 C 2.851562 5.019531 2.71875 5.289062 2.34375 5.375 L 1.828125 5.5 C 1.453125 5.582031 1.210938 5.394531 1.109375 4.9375 Z M 0.4375 1.984375 "/></g></g></g><g fill="#ffc05f" fill-opacity="1"><g transform="translate(184.525583, 92.881252)"><g/></g></g></g></g><g clip-path="url(#7f20ce799a)"><path fill="#ffc05f" d="M 179.863281 151.238281 C 180.851562 150.101562 181.9375 150.25 182.976562 151.289062 C 183.171875 151.484375 183.421875 151.683594 183.71875 151.4375 C 184.851562 150.597656 185.691406 151.339844 186.484375 151.980469 C 187.027344 151.683594 187.074219 151.191406 187.371094 150.84375 C 188.210938 149.707031 189.101562 149.511719 190.285156 150.351562 C 190.878906 150.746094 191.421875 151.289062 191.964844 151.734375 C 192.410156 151.484375 192.507812 150.992188 192.753906 150.597656 C 193.445312 149.609375 194.234375 149.558594 195.125 150.398438 C 195.273438 150.546875 195.421875 150.746094 195.570312 150.941406 C 199.222656 156.867188 201.101562 163.238281 200.113281 170.203125 C 199.175781 177.019531 194.632812 181.117188 187.914062 182.796875 C 186.679688 183.09375 186.628906 183.09375 186.679688 184.277344 C 186.976562 189.167969 187.273438 194.054688 187.570312 198.894531 C 187.570312 198.996094 187.667969 199.09375 187.71875 199.191406 C 188.210938 199.242188 188.210938 198.796875 188.308594 198.550781 C 189.199219 196.523438 190.285156 194.648438 191.519531 192.820312 C 193.890625 189.363281 196.113281 185.757812 198.1875 182.054688 C 198.53125 181.414062 198.878906 180.769531 199.421875 180.277344 C 200.210938 179.636719 201.101562 179.832031 201.398438 180.820312 C 201.542969 181.265625 201.59375 181.808594 201.542969 182.300781 C 201 192.230469 197.445312 200.523438 188.851562 206.15625 C 188.308594 206.5 187.867188 206.847656 187.867188 207.585938 C 187.867188 210.550781 187.867188 213.511719 187.867188 216.425781 C 188.605469 216.625 188.65625 216.179688 188.804688 215.933594 C 190.039062 213.710938 191.570312 211.6875 193.25 209.808594 C 195.667969 207.144531 198.039062 204.425781 200.308594 201.660156 C 200.953125 200.871094 201.59375 199.882812 202.78125 200.425781 C 203.867188 200.921875 203.667969 202.007812 203.667969 202.945312 C 203.667969 206.253906 202.582031 209.265625 201.101562 212.128906 C 199.371094 215.488281 197.101562 218.5 194.285156 221.070312 C 192.703125 222.5 190.976562 223.785156 188.851562 224.378906 C 187.964844 224.625 187.765625 225.070312 187.667969 225.910156 C 187.46875 229.265625 187.222656 232.625 186.335938 235.933594 C 185.839844 237.710938 185.296875 239.488281 184.753906 241.269531 C 184.65625 241.613281 184.457031 242.007812 184.261719 242.304688 C 184.113281 242.550781 183.816406 242.652344 183.519531 242.550781 C 183.222656 242.453125 183.027344 242.207031 183.027344 241.910156 C 183.074219 241.367188 183.171875 240.773438 183.371094 240.28125 C 185.9375 233.019531 186.085938 225.414062 186.335938 217.808594 C 186.382812 216.921875 186.136719 216.378906 185.394531 215.835938 C 182.382812 213.660156 180.160156 210.796875 178.480469 207.488281 C 176.160156 202.945312 174.828125 198.054688 173.394531 193.214844 C 173.199219 192.574219 173.199219 191.980469 173.789062 191.539062 C 174.382812 191.09375 174.976562 191.339844 175.519531 191.683594 C 176.261719 192.179688 176.902344 192.820312 177.542969 193.464844 C 180.851562 196.96875 183.765625 200.722656 185.542969 205.265625 C 185.59375 205.414062 185.691406 205.5625 185.839844 205.808594 C 186.1875 205.414062 186.085938 205.070312 186.039062 204.722656 C 185.792969 198.597656 185.496094 192.476562 185.050781 186.351562 C 184.953125 185.316406 185.246094 184.03125 184.753906 183.242188 C 184.308594 182.449219 182.925781 182.648438 181.988281 182.300781 C 174.582031 179.535156 171.125 174.105469 171.519531 165.707031 C 171.714844 161.066406 173.050781 156.621094 175.320312 152.523438 C 175.667969 151.882812 176.0625 151.238281 176.507812 150.695312 C 177.496094 149.460938 178.234375 149.511719 179.171875 150.746094 C 179.421875 150.941406 179.519531 151.140625 179.863281 151.238281 Z M 184.851562 153.164062 C 183.667969 157.117188 182.382812 160.96875 181.445312 164.871094 C 180.261719 169.757812 181.542969 174.300781 184.0625 178.597656 C 184.359375 179.09375 184.753906 179.488281 185.101562 179.933594 C 185.792969 180.820312 186.679688 180.917969 187.617188 180.523438 C 189 179.933594 190.085938 178.992188 190.777344 177.609375 C 191.519531 176.078125 191.914062 174.449219 191.867188 172.722656 C 191.667969 166.105469 189.890625 159.980469 186.1875 154.449219 C 185.890625 154.003906 185.644531 153.460938 184.851562 153.164062 Z M 177.988281 151.734375 C 177.59375 152.277344 177.394531 152.574219 177.246094 152.867188 C 174.925781 156.820312 173.59375 161.117188 173.347656 165.660156 C 172.902344 173.5625 176.113281 178.203125 182.480469 180.671875 C 182.828125 180.820312 183.171875 181.066406 183.617188 180.769531 C 183.421875 180.476562 183.273438 180.226562 183.074219 179.933594 C 179.617188 174.597656 178.382812 168.917969 180.261719 162.746094 C 180.554688 161.808594 180.753906 160.917969 181.097656 160.03125 C 181.394531 159.238281 181.394531 158.5 181.050781 157.757812 C 180.011719 155.78125 179.074219 153.90625 177.988281 151.734375 Z M 191.816406 179.191406 C 192.160156 179.191406 192.261719 179.242188 192.359375 179.191406 C 192.507812 179.140625 192.65625 179.042969 192.804688 178.945312 C 196.507812 176.621094 198.1875 173.117188 198.53125 168.96875 C 199.027344 162.992188 197.398438 157.511719 194.433594 152.375 C 194.335938 152.175781 194.1875 152.03125 193.792969 152.03125 C 192.902344 153.757812 191.964844 155.585938 191.074219 157.363281 C 190.628906 158.25 190.582031 159.140625 191.027344 160.128906 C 192.011719 162.398438 192.605469 164.820312 193 167.238281 C 193.644531 171.289062 194.085938 175.289062 191.816406 179.191406 Z M 188.113281 222.699219 C 194.234375 221.367188 202.679688 209.117188 201.691406 203.191406 C 201.398438 203.242188 201.25 203.539062 201.101562 203.734375 C 199.074219 206.054688 197.050781 208.425781 195.027344 210.746094 C 193.542969 212.425781 192.113281 214.15625 190.925781 216.082031 C 189.691406 218.058594 188.605469 220.179688 188.113281 222.699219 Z M 188.605469 204.128906 C 195.816406 199.242188 198.878906 192.128906 199.765625 183.636719 C 199.472656 183.785156 199.324219 183.785156 199.324219 183.882812 C 196.902344 188.277344 193.988281 192.328125 191.371094 196.574219 C 189.890625 198.894531 188.902344 201.363281 188.605469 204.128906 Z M 185.59375 213.910156 C 185.691406 207.785156 180.160156 197.019531 175.765625 194.746094 C 177.988281 201.761719 179.765625 208.722656 185.59375 213.910156 Z M 189.644531 156.621094 C 190.039062 155.882812 190.433594 155.191406 190.777344 154.5 C 190.976562 154.101562 191.371094 153.707031 190.976562 153.265625 C 190.433594 152.621094 189.941406 151.929688 189.148438 151.585938 C 189.050781 151.535156 188.953125 151.585938 188.851562 151.632812 C 188.359375 151.882812 187.71875 153.511719 188.011719 154.003906 C 188.457031 154.894531 188.851562 155.832031 189.644531 156.621094 Z M 182.136719 156.324219 C 182.382812 155.484375 182.53125 155.042969 182.679688 154.648438 C 182.976562 153.558594 182.730469 153.015625 181.839844 152.375 C 181.496094 152.128906 181.246094 152.175781 181 152.472656 C 180.703125 152.867188 180.554688 153.265625 180.851562 153.707031 C 181.199219 154.5 181.59375 155.238281 182.136719 156.324219 Z M 182.136719 156.324219 " fill-opacity="1" fill-rule="nonzero"/></g><g clip-path="url(#77209d0b23)"><path fill="#ffc05f" d="M 92.945312 114.714844 L 92.945312 267.128906 L 245.359375 267.128906 L 245.359375 114.714844 Z M 243.640625 265.40625 L 94.667969 265.40625 L 94.667969 116.4375 L 243.640625 116.4375 Z M 243.640625 265.40625 " fill-opacity="1" fill-rule="nonzero"/></g><g clip-path="url(#dfaf452ada)"><g transform="matrix(1, 0, 0, 1, 252, 224)"><g clip-path="url(#910f69d9cd)"><g clip-path="url(#74fac68e1e)"><path fill="#ffc05f" d="M 30.804688 -109.378906 L 30.804688 43.035156 L -121.609375 43.035156 L -121.609375 -109.378906 Z M -119.886719 41.3125 L 29.082031 41.3125 L 29.082031 -107.65625 L -119.886719 -107.65625 Z M -119.886719 41.3125 " fill-opacity="1" fill-rule="nonzero"/></g></g></g></g><g transform="matrix(1, 0, 0, 1, 163, 259)"><g clip-path="url(#3b9e401a57)"><g fill="#ffc05f" fill-opacity="1"><g transform="translate(1.055984, 9.837866)"><g><path d="M 1.953125 -3.421875 L 1.953125 -2.1875 C 1.953125 -1.195312 2.023438 -0.46875 2.171875 0 C 1.960938 0.0703125 1.726562 0.109375 1.46875 0.109375 C 1.195312 0.109375 1.007812 0.0625 0.90625 -0.03125 C 0.8125 -0.132812 0.765625 -0.300781 0.765625 -0.53125 C 0.765625 -0.644531 0.765625 -0.9375 0.765625 -1.40625 C 0.773438 -1.875 0.78125 -2.238281 0.78125 -2.5 L 0.78125 -4.828125 C 0.78125 -5.847656 0.726562 -6.6875 0.625 -7.34375 C 1.4375 -7.40625 2.265625 -7.4375 3.109375 -7.4375 C 4.210938 -7.4375 4.835938 -7.378906 4.984375 -7.265625 C 5.046875 -7.203125 5.078125 -7.085938 5.078125 -6.921875 C 5.078125 -6.691406 5.046875 -6.488281 4.984375 -6.3125 C 4.578125 -6.46875 3.929688 -6.546875 3.046875 -6.546875 C 2.691406 -6.546875 2.3125 -6.535156 1.90625 -6.515625 C 1.9375 -6.285156 1.953125 -5.785156 1.953125 -5.015625 L 1.953125 -4.296875 L 2.796875 -4.296875 C 3.390625 -4.296875 3.8125 -4.3125 4.0625 -4.34375 C 4.09375 -4.28125 4.109375 -4.160156 4.109375 -3.984375 C 4.109375 -3.773438 4.070312 -3.628906 4 -3.546875 C 3.925781 -3.472656 3.804688 -3.4375 3.640625 -3.4375 C 3.453125 -3.425781 3.203125 -3.421875 2.890625 -3.421875 Z M 1.953125 -3.421875 "/></g></g></g><g fill="#ffc05f" fill-opacity="1"><g transform="translate(10.252596, 9.837866)"><g><path d="M 0.703125 -2.5 L 0.703125 -4.8125 C 0.703125 -5.863281 0.675781 -6.726562 0.625 -7.40625 C 0.800781 -7.425781 1.003906 -7.4375 1.234375 -7.4375 C 1.722656 -7.4375 1.96875 -7.296875 1.96875 -7.015625 C 1.96875 -6.972656 1.957031 -6.820312 1.9375 -6.5625 C 1.925781 -6.3125 1.910156 -5.992188 1.890625 -5.609375 C 1.878906 -5.222656 1.875 -4.859375 1.875 -4.515625 L 1.875 -3.546875 C 1.875 -2.078125 1.898438 -1.1875 1.953125 -0.875 C 2.253906 -0.851562 2.492188 -0.84375 2.671875 -0.84375 C 3.765625 -0.84375 4.472656 -0.929688 4.796875 -1.109375 C 4.878906 -0.941406 4.921875 -0.757812 4.921875 -0.5625 C 4.921875 -0.3125 4.820312 -0.148438 4.625 -0.078125 C 4.4375 -0.015625 4.125 0.015625 3.6875 0.015625 L 2.71875 0.015625 C 2.050781 0.015625 1.554688 0.0078125 1.234375 0 C 1.023438 -0.0078125 0.878906 -0.0625 0.796875 -0.15625 C 0.722656 -0.25 0.6875 -0.410156 0.6875 -0.640625 C 0.6875 -0.753906 0.6875 -1.023438 0.6875 -1.453125 C 0.695312 -1.890625 0.703125 -2.238281 0.703125 -2.5 Z M 0.703125 -2.5 "/></g></g></g><g fill="#ffc05f" fill-opacity="1"><g transform="translate(19.280132, 9.837866)"><g><path d="M 3.984375 0.109375 C 2.910156 0.109375 2.054688 -0.234375 1.421875 -0.921875 C 0.785156 -1.617188 0.46875 -2.546875 0.46875 -3.703125 C 0.46875 -4.867188 0.785156 -5.796875 1.421875 -6.484375 C 2.054688 -7.171875 2.910156 -7.515625 3.984375 -7.515625 C 5.078125 -7.515625 5.941406 -7.171875 6.578125 -6.484375 C 7.210938 -5.796875 7.53125 -4.867188 7.53125 -3.703125 C 7.53125 -2.546875 7.207031 -1.617188 6.5625 -0.921875 C 5.925781 -0.234375 5.066406 0.109375 3.984375 0.109375 Z M 6.265625 -3.5 C 6.265625 -4.039062 6.195312 -4.535156 6.0625 -4.984375 C 5.925781 -5.429688 5.679688 -5.816406 5.328125 -6.140625 C 4.972656 -6.472656 4.535156 -6.640625 4.015625 -6.640625 C 3.316406 -6.640625 2.757812 -6.394531 2.34375 -5.90625 C 1.9375 -5.414062 1.734375 -4.785156 1.734375 -4.015625 C 1.734375 -3.460938 1.800781 -2.953125 1.9375 -2.484375 C 2.082031 -2.015625 2.332031 -1.609375 2.6875 -1.265625 C 3.039062 -0.929688 3.476562 -0.765625 4 -0.765625 C 4.71875 -0.765625 5.273438 -1.019531 5.671875 -1.53125 C 6.066406 -2.039062 6.265625 -2.695312 6.265625 -3.5 Z M 6.265625 -3.5 "/></g></g></g><g fill="#ffc05f" fill-opacity="1"><g transform="translate(31.389203, 9.837866)"><g><path d="M 5.03125 -1.0625 C 5.195312 -0.851562 5.394531 -0.75 5.625 -0.75 C 5.707031 -0.75 5.789062 -0.757812 5.875 -0.78125 C 5.945312 -0.625 5.984375 -0.492188 5.984375 -0.390625 C 5.984375 -0.222656 5.890625 -0.0976562 5.703125 -0.015625 C 5.515625 0.0664062 5.296875 0.109375 5.046875 0.109375 C 4.609375 0.109375 4.222656 -0.101562 3.890625 -0.53125 C 3.660156 -0.8125 3.414062 -1.207031 3.15625 -1.71875 C 2.90625 -2.238281 2.707031 -2.6875 2.5625 -3.0625 C 2.394531 -3.125 2.3125 -3.242188 2.3125 -3.421875 C 2.3125 -3.566406 2.34375 -3.710938 2.40625 -3.859375 C 2.519531 -3.828125 2.65625 -3.8125 2.8125 -3.8125 C 3.21875 -3.8125 3.554688 -3.929688 3.828125 -4.171875 C 4.097656 -4.410156 4.234375 -4.769531 4.234375 -5.25 C 4.234375 -5.78125 4.101562 -6.144531 3.84375 -6.34375 C 3.582031 -6.550781 3.175781 -6.65625 2.625 -6.65625 C 2.425781 -6.65625 2.179688 -6.640625 1.890625 -6.609375 C 1.921875 -6.191406 1.9375 -5.453125 1.9375 -4.390625 L 1.9375 -2.21875 C 1.9375 -1.226562 2.007812 -0.503906 2.15625 -0.046875 C 1.988281 0.00390625 1.757812 0.03125 1.46875 0.03125 C 1.1875 0.03125 0.992188 -0.015625 0.890625 -0.109375 C 0.796875 -0.203125 0.75 -0.367188 0.75 -0.609375 C 0.75 -0.722656 0.75 -1.015625 0.75 -1.484375 C 0.757812 -1.953125 0.765625 -2.316406 0.765625 -2.578125 L 0.765625 -4.8125 C 0.765625 -5.84375 0.71875 -6.703125 0.625 -7.390625 C 1.195312 -7.472656 1.78125 -7.515625 2.375 -7.515625 C 4.46875 -7.515625 5.515625 -6.757812 5.515625 -5.25 C 5.515625 -4.675781 5.359375 -4.203125 5.046875 -3.828125 C 4.742188 -3.453125 4.335938 -3.195312 3.828125 -3.0625 C 4.316406 -2.019531 4.71875 -1.351562 5.03125 -1.0625 Z M 5.03125 -1.0625 "/></g></g></g><g fill="#ffc05f" fill-opacity="1"><g transform="translate(41.52391, 9.837866)"><g><path d="M 4.171875 -3.0625 C 4.066406 -3.363281 3.957031 -3.679688 3.84375 -4.015625 C 3.738281 -4.347656 3.625 -4.703125 3.5 -5.078125 C 3.382812 -5.460938 3.304688 -5.722656 3.265625 -5.859375 C 2.910156 -4.734375 2.582031 -3.804688 2.28125 -3.078125 C 2.757812 -3.054688 3.125 -3.046875 3.375 -3.046875 C 3.757812 -3.046875 4.023438 -3.050781 4.171875 -3.0625 Z M 3.140625 -2.21875 C 2.941406 -2.21875 2.539062 -2.226562 1.9375 -2.25 C 1.445312 -1 1.144531 -0.171875 1.03125 0.234375 C 0.375 0.160156 0.046875 0.0078125 0.046875 -0.21875 C 0.046875 -0.320312 0.203125 -0.742188 0.515625 -1.484375 C 0.835938 -2.234375 1.222656 -3.179688 1.671875 -4.328125 C 2.128906 -5.472656 2.488281 -6.488281 2.75 -7.375 C 2.894531 -7.394531 3.085938 -7.40625 3.328125 -7.40625 C 3.523438 -7.40625 3.675781 -7.363281 3.78125 -7.28125 C 3.882812 -7.207031 3.976562 -7.050781 4.0625 -6.8125 C 4.632812 -5.03125 5.050781 -3.800781 5.3125 -3.125 C 5.875 -1.675781 6.296875 -0.671875 6.578125 -0.109375 C 6.296875 0.0351562 6.054688 0.109375 5.859375 0.109375 C 5.546875 0.109375 5.332031 0.0078125 5.21875 -0.1875 C 5.125 -0.414062 5 -0.753906 4.84375 -1.203125 C 4.6875 -1.660156 4.5625 -2.007812 4.46875 -2.25 C 3.738281 -2.226562 3.296875 -2.21875 3.140625 -2.21875 Z M 3.140625 -2.21875 "/></g></g></g></g></g></svg>